<?xml version="1.0" encoding="UTF-8" standalone="no"?>
<!-- Created with Inkscape (http://www.inkscape.org/) -->

<svg
   width="266.79691"
   height="93.585999"
   viewBox="0 0 70.590013 24.761295"
   version="1.1"
   id="svg5"
   inkscape:version="1.4 (e7c3feb1, 2024-10-09)"
   sodipodi:docname="trappist.svg"
   inkscape:export-filename="trappist.png"
   inkscape:export-xdpi="96"
   inkscape:export-ydpi="96"
   xmlns:inkscape="http://www.inkscape.org/namespaces/inkscape"
   xmlns:sodipodi="http://sodipodi.sourceforge.net/DTD/sodipodi-0.dtd"
   xmlns="http://www.w3.org/2000/svg"
   xmlns:svg="http://www.w3.org/2000/svg">
  <sodipodi:namedview
     id="namedview7"
     pagecolor="#ffffff"
     bordercolor="#000000"
     borderopacity="0.25"
     inkscape:showpageshadow="2"
     inkscape:pageopacity="0"
     inkscape:pagecheckerboard="0"
     inkscape:deskcolor="#d1d1d1"
     inkscape:document-units="mm"
     showgrid="false"
     showborder="false"
     inkscape:zoom="2.63"
     inkscape:cx="133.26996"
     inkscape:cy="60.456274"
     inkscape:window-width="1392"
     inkscape:window-height="803"
     inkscape:window-x="199"
     inkscape:window-y="126"
     inkscape:window-maximized="0"
     inkscape:current-layer="layer1" />
  <defs
     id="defs2" />
  <g
     inkscape:label="Layer 1"
     inkscape:groupmode="layer"
     id="layer1"
     transform="translate(-59.920171,-112.07436)">
    <rect
       style="fill:#ffffff;stroke:#000000;stroke-width:0.586607;stroke-miterlimit:10;stroke-dasharray:none;stroke-opacity:1;fill-opacity:1"
       id="rect166"
       width="70.00341"
       height="24.174688"
       x="60.213474"
       y="112.36766"
       ry="3.2420866" />
    <rect
       style="fill:none;stroke:#000000;stroke-width:0.619723;stroke-linejoin:round;stroke-miterlimit:10;stroke-dasharray:none;stroke-opacity:1"
       id="rect333"
       width="26.201208"
       height="18.09004"
       x="86.96788"
       y="114.60587"
       ry="3.2182262" />
    <path
       d="m 69.681302,122.20356 v -1.08865 h -7.4414 v 1.08865 h 3.100583 v 8.94346 h 1.240234 v -8.94346 z m 6.587018,1.35047 q -0.813042,0 -1.453829,0.35829 -0.633897,0.3514 -1.088649,0.96463 l -0.0069,-0.18604 -0.05512,-0.99907 h -1.212673 v 7.45518 h 1.281575 v -4.78179 q 0.124023,-0.34451 0.310058,-0.62012 0.192925,-0.28249 0.447862,-0.47542 0.282498,-0.22049 0.661458,-0.33073 0.37896,-0.11713 0.847493,-0.11713 0.36518,0 0.695909,0.0413 0.337619,0.0345 0.709689,0.11713 l 0.172254,-1.24712 q -0.192925,-0.0827 -0.578775,-0.13091 -0.37896,-0.0482 -0.73036,-0.0482 z m 8.481819,7.59299 h 1.329806 v -0.11024 q -0.124024,-0.31006 -0.192925,-0.72347 -0.0689,-0.42031 -0.0689,-0.79238 v -3.46576 q 0,-0.62701 -0.227376,-1.09554 -0.227377,-0.46853 -0.620117,-0.78548 -0.399631,-0.31006 -0.943956,-0.46164 -0.544324,-0.15848 -1.178221,-0.15848 -0.695909,0 -1.247124,0.19293 -0.544325,0.19292 -0.923285,0.50298 -0.38585,0.31695 -0.592556,0.70969 -0.199815,0.39274 -0.206705,0.79926 h 1.281574 q 0,-0.23426 0.110243,-0.44786 0.117133,-0.22048 0.323839,-0.37896 0.206706,-0.15847 0.502983,-0.25494 0.303169,-0.0965 0.682129,-0.0965 0.406521,0 0.73036,0.10335 0.330728,0.10336 0.558105,0.28939 0.227376,0.19293 0.351399,0.46164 0.124023,0.26872 0.124023,0.60634 v 0.58567 h -1.391817 q -0.778591,0 -1.412488,0.15158 -0.627007,0.15158 -1.074869,0.45475 -0.447862,0.31006 -0.695909,0.7717 -0.241156,0.46165 -0.241156,1.07487 0,0.46854 0.179144,0.87506 0.186035,0.39963 0.523655,0.68901 0.330728,0.29628 0.806151,0.46854 0.482313,0.17225 1.074869,0.17225 0.36518,0 0.689019,-0.0758 0.323839,-0.0758 0.613226,-0.20671 0.282498,-0.13091 0.516764,-0.30316 0.241157,-0.17226 0.434082,-0.36518 0.02067,0.23426 0.06201,0.45475 0.04823,0.21359 0.124023,0.35829 z m -2.253091,-0.97152 q -0.37207,0 -0.654567,-0.0965 -0.282498,-0.0965 -0.468533,-0.26872 -0.186035,-0.16536 -0.282498,-0.39963 -0.08957,-0.23426 -0.08957,-0.50987 0,-0.28939 0.103353,-0.51677 0.110243,-0.22737 0.316948,-0.39274 0.289388,-0.23426 0.778591,-0.34451 0.496094,-0.11713 1.157551,-0.11713 h 1.185112 v 1.50895 q -0.110243,0.22049 -0.303168,0.42719 -0.192925,0.19982 -0.454752,0.35829 -0.268717,0.15848 -0.592556,0.25494 -0.323839,0.0965 -0.695909,0.0965 z m 5.815317,3.83784 h 1.274685 v -3.5829 q 0.137803,0.15158 0.296278,0.2825 0.158474,0.12402 0.337619,0.22737 0.296278,0.16537 0.661458,0.25494 0.37207,0.0896 0.799261,0.0896 0.702799,0 1.247124,-0.28939 0.551215,-0.28938 0.923285,-0.79926 0.37207,-0.50987 0.564995,-1.19889 0.192925,-0.69591 0.192925,-1.49517 v -0.14469 q 0,-0.83372 -0.192925,-1.52962 -0.192925,-0.7028 -0.564995,-1.20579 -0.37207,-0.50298 -0.923285,-0.78548 -0.551215,-0.2825 -1.267794,-0.2825 -0.406521,0 -0.764811,0.0896 -0.351399,0.0827 -0.640787,0.24804 -0.206706,0.11025 -0.385851,0.26872 -0.179145,0.15158 -0.330729,0.34451 l -0.06201,-0.81304 h -1.164442 z m 5.022946,-6.65592 v 0.14469 q 0,0.54432 -0.124024,1.04042 -0.117133,0.49609 -0.365179,0.87505 -0.248047,0.37896 -0.633898,0.60634 -0.38585,0.22048 -0.916394,0.22048 -0.330729,0 -0.606337,-0.0827 -0.268717,-0.0827 -0.489203,-0.22737 -0.192925,-0.12403 -0.344509,-0.30317 -0.151584,-0.17915 -0.268717,-0.38585 v -3.58979 q 0.130913,-0.23427 0.303168,-0.42719 0.172255,-0.19293 0.39274,-0.32384 0.199816,-0.13091 0.447863,-0.19982 0.254936,-0.0689 0.551214,-0.0689 0.537435,0 0.923285,0.22049 0.385851,0.22048 0.640788,0.59255 0.248046,0.37897 0.365179,0.87506 0.124024,0.4892 0.124024,1.03353 z m 3.445093,6.65592 h 1.274684 v -3.5829 q 0.137804,0.15158 0.296278,0.2825 0.158475,0.12402 0.337619,0.22737 0.296278,0.16537 0.661458,0.25494 0.37207,0.0896 0.799257,0.0896 0.7028,0 1.24713,-0.28939 0.55121,-0.28938 0.92328,-0.79926 0.37207,-0.50987 0.565,-1.19889 0.19292,-0.69591 0.19292,-1.49517 v -0.14469 q 0,-0.83372 -0.19292,-1.52962 -0.19293,-0.7028 -0.565,-1.20579 -0.37207,-0.50298 -0.92328,-0.78548 -0.55122,-0.2825 -1.2678,-0.2825 -0.406517,0 -0.764806,0.0896 -0.3514,0.0827 -0.640788,0.24804 -0.206705,0.11025 -0.38585,0.26872 -0.179145,0.15158 -0.330729,0.34451 l -0.06201,-0.81304 h -1.164441 z m 5.022946,-6.65592 v 0.14469 q 0,0.54432 -0.12402,1.04042 -0.11714,0.49609 -0.36518,0.87505 -0.24805,0.37896 -0.6339,0.60634 -0.38585,0.22048 -0.916396,0.22048 -0.330729,0 -0.606336,-0.0827 -0.268717,-0.0827 -0.489203,-0.22737 -0.192925,-0.12403 -0.34451,-0.30317 -0.151584,-0.17915 -0.268717,-0.38585 v -3.58979 q 0.130914,-0.23427 0.303168,-0.42719 0.172255,-0.19293 0.392741,-0.32384 0.199815,-0.13091 0.447862,-0.19982 0.254937,-0.0689 0.551215,-0.0689 0.537436,0 0.923286,0.22049 0.38585,0.22048 0.64079,0.59255 0.24804,0.37897 0.36518,0.87506 0.12402,0.4892 0.12402,1.03353 z m 3.6518,-3.66558 v 1.10932 h 2.53559 v 5.24343 h -2.53559 v 1.10243 h 6.24251 v -1.10243 h -2.43224 v -6.35275 z m 13.22226,5.4777 q 0,0.17914 -0.0689,0.33761 -0.0689,0.15848 -0.19981,0.28939 -0.2136,0.2136 -0.59256,0.33762 -0.37896,0.11713 -0.88883,0.11713 -0.32384,0 -0.65457,-0.0689 -0.33073,-0.0689 -0.59945,-0.23426 -0.2756,-0.16537 -0.46164,-0.43409 -0.17914,-0.26871 -0.2067,-0.66145 h -1.27469 q 0,0.47542 0.2136,0.91639 0.22048,0.44097 0.63389,0.7717 0.40653,0.33762 0.99908,0.54433 0.59256,0.19981 1.35048,0.19981 0.66146,0 1.21956,-0.15847 0.55811,-0.15848 0.95774,-0.44786 0.39963,-0.28939 0.62011,-0.69591 0.22738,-0.40652 0.22738,-0.90262 0,-0.46164 -0.19982,-0.81304 -0.19292,-0.3514 -0.56499,-0.62012 -0.37207,-0.26182 -0.9164,-0.44786 -0.54432,-0.19292 -1.23334,-0.33762 -0.52365,-0.10335 -0.86816,-0.21359 -0.33762,-0.11025 -0.53744,-0.24805 -0.2067,-0.1378 -0.28939,-0.31006 -0.0827,-0.17225 -0.0827,-0.39274 0,-0.21359 0.10336,-0.41341 0.10335,-0.19981 0.31005,-0.3514 0.19982,-0.15158 0.50299,-0.24116 0.31006,-0.0896 0.71658,-0.0896 0.39274,0 0.7028,0.11025 0.31694,0.11024 0.53743,0.28938 0.22049,0.17915 0.34451,0.41341 0.12402,0.22738 0.12402,0.46854 h 1.27469 q 0,-0.48921 -0.2136,-0.90951 -0.2067,-0.42719 -0.59255,-0.74414 -0.38586,-0.31695 -0.93707,-0.49609 -0.55121,-0.17915 -1.24023,-0.17915 -0.64079,0 -1.17823,0.17226 -0.53054,0.17225 -0.91639,0.46853 -0.38585,0.29628 -0.59945,0.69591 -0.21359,0.39274 -0.21359,0.84749 0,0.46165 0.2067,0.81304 0.20671,0.34451 0.58567,0.59945 0.37207,0.26183 0.89572,0.44786 0.53055,0.18604 1.17134,0.31695 0.52365,0.10335 0.87505,0.23427 0.3514,0.12402 0.56499,0.27561 0.2136,0.15158 0.30317,0.33761 0.0896,0.17915 0.0896,0.40653 z m 6.5319,-7.28293 h -1.28158 v 1.80523 h -1.95681 v 0.98529 h 1.95681 v 4.05143 q 0,0.68902 0.17915,1.17823 0.18603,0.48231 0.50298,0.78548 0.31695,0.31005 0.74414,0.45475 0.43408,0.1378 0.93018,0.1378 0.29628,0 0.59255,-0.0276 0.30317,-0.0276 0.57189,-0.0827 0.26872,-0.0482 0.49609,-0.11713 0.22738,-0.0758 0.38585,-0.17226 l -0.17914,-0.90261 q -0.11713,0.0276 -0.30317,0.0689 -0.17914,0.0344 -0.38585,0.0689 -0.2136,0.0344 -0.43408,0.062 -0.22049,0.0207 -0.42719,0.0207 -0.2825,0 -0.53744,-0.0689 -0.24804,-0.0689 -0.44097,-0.24116 -0.19292,-0.16536 -0.30317,-0.44786 -0.11024,-0.2825 -0.11024,-0.71658 v -4.05143 h 2.83876 v -0.98529 h -2.83876 z"
       id="text63"
       style="font-size:14.1111px;font-family:'RobotoMono Nerd Font';-inkscape-font-specification:'RobotoMono Nerd Font, Normal';fill:#78182b;stroke-width:0.265"
       aria-label="Trappıst" />
    <path
       sodipodi:type="star"
       style="fill:#78182b;fill-opacity:1;stroke:none;stroke-width:0.264999;stroke-linejoin:round;stroke-miterlimit:10;stroke-dasharray:none;stroke-opacity:1"
       id="path14928"
       inkscape:flatsided="false"
       sodipodi:sides="5"
       sodipodi:cx="25.664583"
       sodipodi:cy="72.495834"
       sodipodi:r1="3.3883197"
       sodipodi:r2="1.1859119"
       sodipodi:arg1="0.89605538"
       sodipodi:arg2="1.5243739"
       inkscape:rounded="0"
       inkscape:randomized="0"
       d="m 27.78125,75.141668 -2.061634,-1.461199 -1.917284,1.646042 0.752603,-2.412265 -2.157953,-1.31479 2.526768,-0.02966 0.583596,-2.458628 0.809025,2.393932 2.518635,-0.204725 -2.026762,1.509195 z"
       inkscape:transform-center-x="0.0082883534"
       inkscape:transform-center-y="-0.31566526"
       transform="rotate(2.2064012,-1145.1688,2246.1013)" />
  </g>
</svg>
